<svg width="1324" height="190" viewBox="0 0 1324 190" fill="none" xmlns="http://www.w3.org/2000/svg">
<g clip-path="url(#clip0_671_291)">
<path d="M183.636 181.555V7.78845C183.636 5.0619 181.428 2.85352 178.702 2.85352H4.93494C2.20838 2.85352 0 5.0619 0 7.78845V181.555C0 184.282 2.20838 186.49 4.93494 186.49H178.702C181.428 186.49 183.636 184.282 183.636 181.555Z" fill="#E70D16"/>
<path d="M1281.35 94.8962C1281.36 66.1305 1257.83 42.3613 1229.29 42.307C1200.66 42.2528 1177.04 65.9873 1177.01 94.8173C1176.98 123.346 1200.43 146.846 1228.99 146.903C1257.75 146.962 1281.33 123.534 1281.35 94.8962ZM1323.43 94.8666C1323.45 147.155 1281.56 188.964 1229.1 189.003C1176.71 189.042 1135.01 147.347 1135 94.9135C1134.99 42.2577 1176.77 0.261375 1229.13 0.29592C1281.44 0.330464 1323.41 42.4156 1323.43 94.8666Z" fill="black"/>
<path d="M1281.35 94.8962C1281.36 66.1305 1257.83 42.3613 1229.29 42.307C1200.66 42.2528 1177.04 65.9873 1177.01 94.8173C1176.98 123.346 1200.43 146.846 1228.99 146.903C1257.75 146.962 1281.33 123.534 1281.35 94.8962ZM1323.43 94.8666C1323.45 147.155 1281.56 188.964 1229.1 189.003C1176.71 189.042 1135.01 147.347 1135 94.9135C1134.99 42.2577 1176.77 0.261375 1229.13 0.29592C1281.44 0.330464 1323.41 42.4156 1323.43 94.8666Z" fill="black" fill-opacity="0.2"/>
<path d="M1072.23 0.154297C1080.96 0.618181 1089.6 1.30167 1098.02 3.69758C1108.46 6.66595 1117.34 12.3239 1125.42 19.3981C1126.31 20.1753 1127.22 20.9329 1128.03 21.7891C1129.75 23.6101 1129.94 25.89 1128.65 27.8911C1125.15 33.3171 1121.65 38.743 1118.17 44.1764C1116.38 46.9548 1114.64 49.7529 1112.86 52.5313C1111.13 55.2331 1108.22 55.6131 1105.72 53.5454C1104.02 52.1291 1102.3 50.7103 1100.48 49.4519C1081.95 36.6383 1057.23 36.9985 1039.75 50.4981C1028.81 58.9467 1022.35 70.2576 1019.98 83.7892C1017.34 98.9123 1019.99 113.125 1029.07 125.64C1040.6 141.553 1056.5 148.479 1076.03 146.737C1086.96 145.762 1096.79 141.807 1105.33 134.792C1108.3 132.349 1111.37 132.926 1113.41 136.213C1117.93 143.502 1122.43 150.806 1126.93 158.102C1127.3 158.704 1127.67 159.306 1128.08 159.886C1129.7 162.213 1129.53 165.018 1127.52 166.975C1117.27 176.963 1105.49 184.395 1091.26 187.013C1056.95 193.33 1026.42 185.873 1001.26 160.853C986.652 146.32 977.907 128.549 975.378 108.072C971.333 75.3282 981.319 47.3817 1005.52 24.8759C1019.73 11.6576 1036.76 3.91965 1056.02 1.37323C1061.39 0.662596 1066.83 0.544157 1072.23 0.154297Z" fill="black"/>
<path d="M1072.23 0.154297C1080.96 0.618181 1089.6 1.30167 1098.02 3.69758C1108.46 6.66595 1117.34 12.3239 1125.42 19.3981C1126.31 20.1753 1127.22 20.9329 1128.03 21.7891C1129.75 23.6101 1129.94 25.89 1128.65 27.8911C1125.15 33.3171 1121.65 38.743 1118.17 44.1764C1116.38 46.9548 1114.64 49.7529 1112.86 52.5313C1111.13 55.2331 1108.22 55.6131 1105.72 53.5454C1104.02 52.1291 1102.3 50.7103 1100.48 49.4519C1081.95 36.6383 1057.23 36.9985 1039.75 50.4981C1028.81 58.9467 1022.35 70.2576 1019.98 83.7892C1017.34 98.9123 1019.99 113.125 1029.07 125.64C1040.6 141.553 1056.5 148.479 1076.03 146.737C1086.96 145.762 1096.79 141.807 1105.33 134.792C1108.3 132.349 1111.37 132.926 1113.41 136.213C1117.93 143.502 1122.43 150.806 1126.93 158.102C1127.3 158.704 1127.67 159.306 1128.08 159.886C1129.7 162.213 1129.53 165.018 1127.52 166.975C1117.27 176.963 1105.49 184.395 1091.26 187.013C1056.95 193.33 1026.42 185.873 1001.26 160.853C986.652 146.32 977.907 128.549 975.378 108.072C971.333 75.3282 981.319 47.3817 1005.52 24.8759C1019.73 11.6576 1036.76 3.91965 1056.02 1.37323C1061.39 0.662596 1066.83 0.544157 1072.23 0.154297Z" fill="black" fill-opacity="0.2"/>
<path d="M277.692 188.919C264.649 188.613 252.02 186.476 239.959 181.457C232.991 178.556 226.519 174.803 220.873 169.734C219.96 168.918 219.139 168 218.277 167.126C216.861 165.693 216.693 164.057 217.614 162.33C218.946 159.835 220.323 157.368 221.712 154.905C224.491 149.98 227.296 145.07 230.082 140.15C232.004 136.754 236.031 135.688 239.436 137.697C243.574 140.14 247.626 142.75 251.87 144.993C258.366 148.425 265.194 151.009 272.564 151.86C275.962 152.255 279.35 152.27 282.686 151.364C292.469 148.707 297.155 139.441 293.511 129.949C291.734 125.327 288.435 121.94 284.571 119.033C279.207 114.999 273.159 112.265 266.968 109.78C256.136 105.435 245.928 99.9792 236.986 92.3843C228.545 85.2138 222.008 76.6813 218.847 65.9034C212.156 43.0867 222.712 18.8883 244.208 7.54284C252.79 3.01257 261.981 0.784446 271.602 0.177448C294.929 -1.2907 315.363 6.44482 333.967 19.9123C336.156 21.4964 336.748 25.5998 335.065 28.1931C330.624 35.0329 326.158 41.8604 321.509 48.5596C320.549 49.9438 318.859 50.9431 317.322 51.7796C315.617 52.7049 313.86 52.4754 312.138 51.3059C304.908 46.3981 297.461 41.8727 289.207 38.8328C284.065 36.9353 278.822 35.6819 273.297 36.1285C269.823 36.4098 266.677 37.6213 263.945 39.7853C259.107 43.6197 257.732 49.1098 260.062 55.0367C261.68 59.1574 264.713 62.0936 268.189 64.6228C274.346 69.0988 281.265 72.114 288.275 74.9393C299.213 79.3462 309.742 84.5081 318.98 91.9673C328.109 99.3376 335.221 108.238 338.347 119.724C343.316 137.968 339.381 154.335 326.92 168.488C317.299 179.417 304.905 185.447 290.638 187.68C286.362 188.349 282.01 188.519 277.692 188.919Z" fill="black"/>
<path d="M277.692 188.919C264.649 188.613 252.02 186.476 239.959 181.457C232.991 178.556 226.519 174.803 220.873 169.734C219.96 168.918 219.139 168 218.277 167.126C216.861 165.693 216.693 164.057 217.614 162.33C218.946 159.835 220.323 157.368 221.712 154.905C224.491 149.98 227.296 145.07 230.082 140.15C232.004 136.754 236.031 135.688 239.436 137.697C243.574 140.14 247.626 142.75 251.87 144.993C258.366 148.425 265.194 151.009 272.564 151.86C275.962 152.255 279.35 152.27 282.686 151.364C292.469 148.707 297.155 139.441 293.511 129.949C291.734 125.327 288.435 121.94 284.571 119.033C279.207 114.999 273.159 112.265 266.968 109.78C256.136 105.435 245.928 99.9792 236.986 92.3843C228.545 85.2138 222.008 76.6813 218.847 65.9034C212.156 43.0867 222.712 18.8883 244.208 7.54284C252.79 3.01257 261.981 0.784446 271.602 0.177448C294.929 -1.2907 315.363 6.44482 333.967 19.9123C336.156 21.4964 336.748 25.5998 335.065 28.1931C330.624 35.0329 326.158 41.8604 321.509 48.5596C320.549 49.9438 318.859 50.9431 317.322 51.7796C315.617 52.7049 313.86 52.4754 312.138 51.3059C304.908 46.3981 297.461 41.8727 289.207 38.8328C284.065 36.9353 278.822 35.6819 273.297 36.1285C269.823 36.4098 266.677 37.6213 263.945 39.7853C259.107 43.6197 257.732 49.1098 260.062 55.0367C261.68 59.1574 264.713 62.0936 268.189 64.6228C274.346 69.0988 281.265 72.114 288.275 74.9393C299.213 79.3462 309.742 84.5081 318.98 91.9673C328.109 99.3376 335.221 108.238 338.347 119.724C343.316 137.968 339.381 154.335 326.92 168.488C317.299 179.417 304.905 185.447 290.638 187.68C286.362 188.349 282.01 188.519 277.692 188.919Z" fill="black" fill-opacity="0.2"/>
<path d="M426.546 80.1948C422.309 89.66 418.208 98.8118 414.112 107.966C406.266 125.502 398.424 143.041 390.577 160.58C387.673 167.069 384.749 173.549 381.86 180.046C380.004 184.218 376.895 186.437 372.261 186.432C362.818 186.424 353.375 186.466 343.935 186.434C339.242 186.419 337.278 183.271 339.249 179.024C349.21 157.584 359.174 136.147 369.143 114.71C381.833 87.4244 394.53 60.1416 407.223 32.8564C411.692 23.248 416.175 13.6471 420.614 4.02646C421.801 1.45783 423.716 0.35487 426.533 0.320325C429.457 0.285781 431.629 1.14939 432.932 3.95737C444.39 28.6469 455.891 53.3166 467.37 77.9963C477.958 100.756 488.536 123.519 499.119 146.279C504.182 157.17 509.253 168.056 514.311 178.948C516.305 183.241 514.284 186.439 509.566 186.444C500.173 186.456 490.774 186.353 481.38 186.488C476.887 186.553 473.941 184.625 472.14 180.633C469.329 174.41 466.487 168.2 463.666 161.981C457.362 148.087 451.058 134.193 444.761 120.294C438.989 107.557 433.228 94.812 427.461 82.0725C427.214 81.5297 426.938 80.9992 426.546 80.1948Z" fill="black"/>
<path d="M426.546 80.1948C422.309 89.66 418.208 98.8118 414.112 107.966C406.266 125.502 398.424 143.041 390.577 160.58C387.673 167.069 384.749 173.549 381.86 180.046C380.004 184.218 376.895 186.437 372.261 186.432C362.818 186.424 353.375 186.466 343.935 186.434C339.242 186.419 337.278 183.271 339.249 179.024C349.21 157.584 359.174 136.147 369.143 114.71C381.833 87.4244 394.53 60.1416 407.223 32.8564C411.692 23.248 416.175 13.6471 420.614 4.02646C421.801 1.45783 423.716 0.35487 426.533 0.320325C429.457 0.285781 431.629 1.14939 432.932 3.95737C444.39 28.6469 455.891 53.3166 467.37 77.9963C477.958 100.756 488.536 123.519 499.119 146.279C504.182 157.17 509.253 168.056 514.311 178.948C516.305 183.241 514.284 186.439 509.566 186.444C500.173 186.456 490.774 186.353 481.38 186.488C476.887 186.553 473.941 184.625 472.14 180.633C469.329 174.41 466.487 168.2 463.666 161.981C457.362 148.087 451.058 134.193 444.761 120.294C438.989 107.557 433.228 94.812 427.461 82.0725C427.214 81.5297 426.938 80.9992 426.546 80.1948Z" fill="black" fill-opacity="0.2"/>
<path d="M624.043 7.83585C624.043 5.21293 626.14 2.85156 629.027 2.85156H737.606C740.49 2.85156 742.588 5.21293 742.588 7.83585V36.4264C742.588 39.0469 740.49 41.4082 737.606 41.4082H664.959V73.9295H724.755C727.378 73.9295 729.739 76.2908 729.739 78.9138V107.502C729.739 110.386 727.378 112.484 724.755 112.484H664.959V147.889H737.606C740.49 147.889 742.588 150.253 742.588 152.874V181.462C742.588 184.082 740.49 186.444 737.606 186.444H629.027C626.14 186.444 624.043 184.082 624.043 181.462V7.83585Z" fill="black"/>
<path d="M624.043 7.83585C624.043 5.21293 626.14 2.85156 629.027 2.85156H737.606C740.49 2.85156 742.588 5.21293 742.588 7.83585V36.4264C742.588 39.0469 740.49 41.4082 737.606 41.4082H664.959V73.9295H724.755C727.378 73.9295 729.739 76.2908 729.739 78.9138V107.502C729.739 110.386 727.378 112.484 724.755 112.484H664.959V147.889H737.606C740.49 147.889 742.588 150.253 742.588 152.874V181.462C742.588 184.082 740.49 186.444 737.606 186.444H629.027C626.14 186.444 624.043 184.082 624.043 181.462V7.83585Z" fill="black" fill-opacity="0.2"/>
<path d="M791.352 4.42614C791.616 2.06724 793.98 0.231445 796.075 0.231445H800.272C801.585 0.231445 803.946 1.28012 804.731 2.8519L865.579 116.156H866.104L926.952 2.8519C927.739 1.28012 930.101 0.231445 931.411 0.231445H935.603C937.705 0.231445 940.067 2.06724 940.326 4.42614L969.965 180.677C970.491 184.083 968.129 186.444 964.981 186.444H934.031C931.67 186.444 929.308 184.349 929.049 182.247L917.247 101.208H916.722L872.658 186.185C871.873 187.757 869.512 189.067 868.202 189.067H863.479C861.907 189.067 859.81 187.757 859.02 186.185L814.697 101.208H814.171L802.634 182.247C802.37 184.349 800.272 186.444 797.652 186.444H766.702C763.554 186.444 761.192 184.083 761.718 180.677L791.352 4.42614Z" fill="black"/>
<path d="M791.352 4.42614C791.616 2.06724 793.98 0.231445 796.075 0.231445H800.272C801.585 0.231445 803.946 1.28012 804.731 2.8519L865.579 116.156H866.104L926.952 2.8519C927.739 1.28012 930.101 0.231445 931.411 0.231445H935.603C937.705 0.231445 940.067 2.06724 940.326 4.42614L969.965 180.677C970.491 184.083 968.129 186.444 964.981 186.444H934.031C931.67 186.444 929.308 184.349 929.049 182.247L917.247 101.208H916.722L872.658 186.185C871.873 187.757 869.512 189.067 868.202 189.067H863.479C861.907 189.067 859.81 187.757 859.02 186.185L814.697 101.208H814.171L802.634 182.247C802.37 184.349 800.272 186.444 797.652 186.444H766.702C763.554 186.444 761.192 184.083 761.718 180.677L791.352 4.42614Z" fill="black" fill-opacity="0.2"/>
<path d="M559.402 112.224C582.216 103.043 598.215 83.636 598.215 59.5066C598.215 28.2956 572.514 2.85352 541.041 2.85352H462.062L480.793 40.359H537.634C548.384 40.359 557.566 49.274 557.566 60.2913C557.566 71.3085 548.384 81.2746 537.634 81.2746H500.809C500.826 81.3116 500.844 81.3462 500.861 81.3832C513.369 106.697 525.866 132.018 538.369 157.337L551.792 184.084C552.318 185.135 553.892 186.446 555.989 186.446H590.872C595.333 186.446 597.166 182.248 595.333 178.841L559.402 112.224Z" fill="black"/>
<path d="M559.402 112.224C582.216 103.043 598.215 83.636 598.215 59.5066C598.215 28.2956 572.514 2.85352 541.041 2.85352H462.062L480.793 40.359H537.634C548.384 40.359 557.566 49.274 557.566 60.2913C557.566 71.3085 548.384 81.2746 537.634 81.2746H500.809C500.826 81.3116 500.844 81.3462 500.861 81.3832C513.369 106.697 525.866 132.018 538.369 157.337L551.792 184.084C552.318 185.135 553.892 186.446 555.989 186.446H590.872C595.333 186.446 597.166 182.248 595.333 178.841L559.402 112.224Z" fill="black" fill-opacity="0.2"/>
<path d="M149.584 112.29H109.433V153.265H74.2004V112.29H34.0547V77.0525H74.2004V36.0752H109.433V77.0525H149.584V112.29Z" fill="white"/>
</g>
<defs>
<clipPath id="clip0_671_291">
<rect width="1324" height="189.143" fill="white"/>
</clipPath>
</defs>
</svg>
